<svg width="112" height="97" viewBox="0 0 112 97" fill="none" xmlns="http://www.w3.org/2000/svg">
<path d="M45 0L112 56.5V97L0 0H45Z" fill="#FFD600"/>
<path d="M31.986 22.5818C30.8586 21.5744 30.2817 20.4831 30.2553 19.3079C30.2289 18.1328 30.7381 16.9607 31.7829 15.7915L38.6487 8.10813C39.6935 6.93893 40.8012 6.3016 41.9719 6.19616C43.1425 6.09071 44.2916 6.54172 45.419 7.5492C46.5465 8.55668 47.1234 9.64797 47.1498 10.8231C47.1762 11.9982 46.6669 13.1704 45.6222 14.3396L38.7564 22.0229C37.7116 23.1921 36.6039 23.8294 35.4332 23.9349C34.2625 24.0403 33.1135 23.5893 31.986 22.5818ZM33.8517 20.494C34.6451 21.2029 35.4709 21.0772 36.3291 20.1168L43.4561 12.1411C44.3143 11.1807 44.3467 10.346 43.5534 9.63707C42.76 8.9281 41.9342 9.05383 41.0759 10.0142L33.949 17.9899C33.0908 18.9503 33.0583 19.785 33.8517 20.494ZM50.2724 12.2616L53.6756 15.3027C54.8587 16.3599 55.473 17.4094 55.5183 18.4513C55.576 19.4792 55.095 20.5639 54.0751 21.7052L53.2728 22.603C51.9171 24.1202 50.5578 24.6328 49.1949 24.141L49.1576 24.1827C49.5651 24.8473 49.6501 25.5366 49.4126 26.2506C49.189 26.977 48.6916 27.7717 47.9205 28.6347L45.6257 31.2028C45.2525 31.6204 44.9617 31.9738 44.7532 32.2632C44.5572 32.5386 44.4029 32.8513 44.2904 33.2014L41.952 31.1118C42.0799 30.8005 42.2232 30.5281 42.382 30.2944C42.5407 30.0608 42.8626 29.6725 43.3477 29.1297L45.7358 26.4572C46.3328 25.7891 46.6381 25.2233 46.6517 24.7598C46.6793 24.3088 46.4286 23.8469 45.8996 23.3743L45.1063 22.6653L39.5092 28.9289L37.2125 26.8767L50.2724 12.2616ZM47.8071 21.3237C48.2664 21.7342 48.7132 21.9206 49.1473 21.883C49.5954 21.8578 50.0682 21.5668 50.5657 21.0101L51.5732 19.8826C52.0458 19.3537 52.2904 18.8839 52.307 18.4731C52.3375 18.0748 52.1509 17.6953 51.7473 17.3346L50.7033 16.4017L46.972 20.5775L47.8071 21.3237ZM58.6932 19.7863L62.2008 22.9207C63.3422 23.9406 63.9245 25.0118 63.948 26.1342C63.9714 27.2566 63.4545 28.4093 62.3972 29.5924L55.7927 36.9835C54.7354 38.1666 53.6479 38.8094 52.5299 38.9119C51.4119 39.0144 50.2823 38.5557 49.1409 37.5358L45.6333 34.4014L58.6932 19.7863ZM50.9649 35.4106C51.3407 35.7464 51.7255 35.89 52.1194 35.8415C52.5272 35.8053 52.955 35.5367 53.4027 35.0356L60.1939 27.4358C60.6416 26.9347 60.8606 26.4795 60.8508 26.0702C60.855 25.6734 60.6691 25.3071 60.2933 24.9713L59.1241 23.9265L49.7957 34.3658L50.9649 35.4106ZM67.1751 27.3657L73.4387 32.9628L71.573 35.0507L67.6061 31.5058L64.1545 35.3684L67.3072 38.1856L65.4415 40.2735L62.2888 37.4563L58.2776 41.9452L62.2445 45.49L60.3788 47.5779L54.1153 41.9808L67.1751 27.3657ZM74.7599 34.1434L78.1632 37.1845C79.3463 38.2418 79.9605 39.2913 80.0058 40.3331C80.0636 41.3611 79.5825 42.4457 78.5626 43.5871L77.7604 44.4849C76.4046 46.002 75.0453 46.5147 73.6824 46.0228L73.6451 46.0646C74.0526 46.7291 74.1376 47.4184 73.9001 48.1324C73.6766 48.8589 73.1792 49.6536 72.408 50.5166L70.1132 53.0846C69.7401 53.5022 69.4493 53.8557 69.2408 54.145C69.0448 54.4204 68.8905 54.7332 68.7779 55.0832L66.4395 52.9936C66.5675 52.6824 66.7108 52.4099 66.8695 52.1763C67.0283 51.9426 67.3502 51.5543 67.8352 51.0115L70.2233 48.339C70.8204 47.6709 71.1257 47.1051 71.1393 46.6416C71.1668 46.1906 70.9161 45.7288 70.3872 45.2561L69.5938 44.5472L63.9967 50.8108L61.7001 48.7585L74.7599 34.1434ZM72.2947 43.2056C72.754 43.616 73.2007 43.8025 73.6349 43.7648C74.0829 43.7397 74.5557 43.4487 75.0533 42.8919L76.0607 41.7645C76.5334 41.2355 76.778 40.7657 76.7946 40.3549C76.8251 39.9566 76.6385 39.5771 76.2348 39.2164L75.1909 38.2836L71.4595 42.4593L72.2947 43.2056ZM83.1807 41.6682L89.4443 47.2653L87.5786 49.3531L83.6117 45.8083L80.1601 49.6709L83.3128 52.4881L81.4471 54.5759L78.2945 51.7587L74.2832 56.2476L78.2501 59.7924L76.3845 61.8803L70.1209 56.2832L83.1807 41.6682ZM90.7656 48.4459L94.2732 51.5803C95.4145 52.6002 95.9969 53.6713 96.0203 54.7937C96.0437 55.9161 95.5268 57.0689 94.4696 58.252L87.865 65.6431C86.8078 66.8262 85.7202 67.469 84.6023 67.5715C83.4843 67.6739 82.3547 67.2152 81.2133 66.1953L77.7057 63.0609L90.7656 48.4459ZM83.0372 64.0701C83.413 64.406 83.7979 64.5496 84.1918 64.501C84.5996 64.4649 85.0273 64.1963 85.4751 63.6952L92.2662 56.0954C92.714 55.5943 92.933 55.1391 92.9232 54.7298C92.9274 54.333 92.7415 53.9666 92.3657 53.6308L91.1965 52.586L81.868 63.0253L83.0372 64.0701Z" fill="black"/>
</svg>
